<svg width="176" height="54" fill="none" xmlns="http://www.w3.org/2000/svg"><path d="M58.586 17.338h5.42v19.02H75.75v4.422H58.586V17.338zM92.292 24.485c1.495 1.328 2.24 3.332 2.24 6.01v10.281h-4.886v-2.242c-.982 1.673-2.813 2.512-5.488 2.512-1.385 0-2.581-.234-3.596-.703-1.014-.468-1.79-1.116-2.324-1.942-.536-.827-.803-1.764-.803-2.815 0-1.675.63-2.99 1.889-3.95 1.261-.96 3.205-1.44 5.838-1.44h4.149c0-1.14-.348-2.015-1.037-2.63-.693-.614-1.73-.92-3.112-.92-.959 0-1.901.15-2.828.452-.926.303-1.713.71-2.36 1.223l-1.873-3.65c.982-.693 2.16-1.227 3.531-1.607 1.372-.381 2.783-.57 4.233-.57 2.792 0 4.931.664 6.427 1.991zm-4.45 12.426c.688-.413 1.18-1.022 1.472-1.825v-1.842h-3.58c-2.142 0-3.211.703-3.211 2.108 0 .67.26 1.2.787 1.591.523.39 1.241.586 2.158.586.89 0 1.684-.205 2.373-.618zM116.449 15.932v24.847h-4.986v-2.076c-1.294 1.562-3.167 2.343-5.621 2.343-1.694 0-3.228-.38-4.6-1.139-1.372-.758-2.448-1.841-3.228-3.247-.78-1.405-1.17-3.035-1.17-4.89 0-1.854.39-3.485 1.17-4.89.78-1.406 1.856-2.49 3.228-3.247 1.372-.758 2.906-1.139 4.6-1.139 2.298 0 4.093.726 5.387 2.177v-8.74h5.22zm-6.423 19.472c.871-.904 1.303-2.115 1.303-3.634 0-1.52-.435-2.73-1.303-3.634-.868-.905-1.964-1.357-3.28-1.357-1.34 0-2.442.452-3.313 1.357-.868.904-1.304 2.115-1.304 3.634 0 1.52.436 2.73 1.304 3.634.871.905 1.973 1.357 3.313 1.357 1.316 0 2.408-.452 3.28-1.357zM138.263 15.932v24.847h-4.984v-2.076c-1.293 1.562-3.166 2.343-5.62 2.343-1.694 0-3.228-.38-4.6-1.139-1.372-.758-2.448-1.841-3.229-3.247-.78-1.405-1.17-3.035-1.17-4.89 0-1.854.39-3.485 1.17-4.89.781-1.406 1.857-2.49 3.229-3.247 1.372-.758 2.906-1.139 4.6-1.139 2.298 0 4.093.726 5.386 2.177v-8.74h5.218zm-6.424 19.472c.872-.904 1.304-2.115 1.304-3.634 0-1.52-.436-2.73-1.304-3.634-.868-.905-1.963-1.357-3.28-1.357-1.339 0-2.441.452-3.313 1.357-.867.904-1.303 2.115-1.303 3.634 0 1.52.436 2.73 1.303 3.634.872.905 1.974 1.357 3.313 1.357 1.317 0 2.412-.452 3.28-1.357zM159.277 33.243h-13.618c.244 1.116.825 1.998 1.739 2.645.913.648 2.051.973 3.413.973.937 0 1.769-.14 2.494-.42.725-.28 1.401-.719 2.025-1.324l2.776 3.013c-1.696 1.943-4.17 2.912-7.428 2.912-2.028 0-3.826-.397-5.387-1.187-1.563-.794-2.766-1.894-3.615-3.3-.848-1.405-1.271-3.003-1.271-4.789 0-1.763.42-3.354 1.255-4.773a8.8 8.8 0 013.446-3.315c1.46-.794 3.095-1.188 4.902-1.188 1.762 0 3.359.38 4.786 1.139a8.297 8.297 0 013.361 3.263c.813 1.419 1.223 3.065 1.223 4.94 0 .07-.036.54-.101 1.411zm-12.214-5.794c-.803.67-1.294 1.584-1.473 2.746h8.866c-.179-1.14-.67-2.047-1.473-2.73-.803-.68-1.785-1.022-2.945-1.022-1.18.004-2.172.335-2.975 1.006zM169.029 23.164c1.06-.445 2.279-.67 3.664-.67v4.822a18.54 18.54 0 00-1.17-.068c-1.496 0-2.666.42-3.514 1.255-.849.837-1.271 2.093-1.271 3.768v8.505h-5.221V22.761h4.986v2.378c.625-.872 1.467-1.529 2.526-1.975zM28.545 23.241l1.264-1.265a1.792 1.792 0 000-2.528 1.79 1.79 0 00-2.53 2.528l1.266 1.265zM22.586 33.344l-1.264 1.265a1.792 1.792 0 000 2.528c.695.697 1.83.697 2.526 0a1.792 1.792 0 000-2.528l-1.262-1.265zM17.892 19.448a1.79 1.79 0 00-2.53 2.528l1.265 1.265 1.265-1.265a1.786 1.786 0 000-2.528z" fill="#1A1A1A"/><path d="M22.547 5.588C10.645 5.588 1 15.24 1 27.153c0 11.91 9.645 21.564 21.547 21.564 11.902 0 21.547-9.653 21.547-21.564 0-11.912-9.649-21.565-21.547-21.565zm10.92 26.721l-4.925-4.925-3.888 3.89 1.264 1.267a4.725 4.725 0 010 6.67 4.694 4.694 0 01-3.332 1.379 4.694 4.694 0 01-3.332-1.38 4.726 4.726 0 010-6.67l1.264-1.265-3.888-3.891-4.925 4.925-2.067-2.069 4.921-4.926-1.264-1.265a4.688 4.688 0 01-1.382-3.335 4.716 4.716 0 018.046-3.335 4.725 4.725 0 010 6.67l-1.264 1.265 3.891 3.888 3.888-3.89-1.265-1.267a4.688 4.688 0 01-1.381-3.335c0-1.259.49-2.443 1.381-3.334a4.716 4.716 0 016.665 0 4.726 4.726 0 010 6.67l-1.265 1.265 4.922 4.926-2.064 2.073z" fill="#1A1A1A"/></svg>